<svg version="1.1" id="Layer_1" xmlns="http://www.w3.org/2000/svg" xmlns:xlink="http://www.w3.org/1999/xlink" x="0px" y="0px"
	 width="100%" viewBox="0 0 924 350" enable-background="new 0 0 1024 576" xml:space="preserve">
<path fill="#F0A500" opacity="1.000000" stroke="none" 
	d="
M801.985901,288.975067 
	C805.645142,290.741302 809.679688,290.942596 813.555298,291.824432 
	C816.259888,292.439758 819.735046,292.325104 820.303894,296.779755 
	C814.231628,296.213501 809.410828,301.407166 802.998657,299.351746 
	C799.265503,298.155060 798.569153,298.168152 798.954956,294.398193 
	C795.367371,293.798309 791.801819,292.982483 788.127991,293.248474 
	C787.339111,294.718445 790.037537,295.344208 788.911926,296.620728 
	C780.305603,299.958008 771.805603,303.137573 762.322754,298.562866 
	C762.979614,304.064087 767.806580,301.993286 769.455566,304.185760 
	C770.012756,306.019135 767.603638,305.603180 767.759338,306.948273 
	C772.095642,309.882080 776.584229,308.469543 781.143799,307.606232 
	C780.020691,305.993286 777.282227,307.097534 776.657166,304.407410 
	C780.503357,301.567047 784.235107,303.622253 788.980713,304.663910 
	C785.945557,306.670654 784.989136,308.986542 785.099548,312.016815 
	C786.387512,312.708221 787.791382,313.461884 789.054199,314.139771 
	C789.036438,315.561279 788.303955,315.959076 787.429199,315.939514 
	C775.667908,315.676453 763.887207,315.688965 752.157043,314.928375 
	C747.731384,314.641388 743.682373,311.506775 738.783813,312.761932 
	C734.426514,313.878418 729.487488,313.319550 726.666687,318.053375 
	C725.390808,320.194366 723.044128,319.307281 721.157349,319.309082 
	C681.333679,319.347321 641.506348,318.999603 601.687317,319.427582 
	C566.716797,319.803467 531.759583,321.390503 496.789062,321.782715 
	C467.320587,322.113251 437.841705,321.436035 408.367004,321.313690 
	C375.206573,321.176056 342.032898,321.698425 308.889160,320.913452 
	C284.437408,320.334290 260.018524,318.256012 235.539200,317.887390 
	C231.674850,317.829224 228.119308,317.743134 225.531647,321.794464 
	C223.906387,324.338989 221.212357,323.730621 220.595230,320.473450 
	C220.091537,317.814972 218.683258,317.377014 216.424393,317.397583 
	C209.450668,317.461090 202.466888,316.894958 195.852615,320.169281 
	C192.683136,321.738251 188.624786,318.113495 188.428696,313.948822 
	C188.343140,312.131409 188.455978,310.295807 188.249680,308.494690 
	C187.718491,303.856628 189.770645,298.412231 183.925949,295.380432 
	C182.693115,294.740906 182.389404,292.688141 182.744186,291.229309 
	C183.989822,286.107391 181.300247,281.578186 180.860962,276.759155 
	C180.454941,272.305176 180.191101,267.849274 179.495392,263.416809 
	C179.147705,261.201691 180.787125,259.677582 182.245651,258.333344 
	C188.819839,252.274216 196.636063,249.137283 205.490677,247.910782 
	C247.463043,242.097076 289.670532,245.935043 331.746399,244.574844 
	C348.207184,244.042709 364.664825,243.091980 381.084198,241.819733 
	C385.317566,241.491714 388.750977,243.731293 392.702179,243.663940 
	C417.798523,243.236221 442.903290,243.120483 467.976898,241.813354 
	C472.025452,241.602310 475.339508,237.765198 479.702148,239.078415 
	C484.756683,240.599838 489.682831,241.364197 494.683044,238.821411 
	C495.614227,238.347870 496.870331,238.816544 497.852386,239.730743 
	C501.339600,242.977051 505.131012,242.442657 508.441284,239.711319 
	C510.772583,237.787674 513.975159,237.714890 515.240173,238.891602 
	C518.234802,241.677231 521.437134,240.622726 524.615356,240.907684 
	C532.579285,241.621689 540.102417,239.476486 547.653198,237.450546 
	C548.598572,237.196884 549.901855,236.791962 550.568237,237.209290 
	C558.710083,242.308289 567.464417,238.407379 575.890198,239.053833 
	C577.408081,239.170288 578.627991,238.485733 579.912170,237.482666 
	C582.901672,235.147629 586.612000,234.735718 589.648438,236.844513 
	C593.808350,239.733627 597.180603,239.616928 601.172058,236.585953 
	C603.447144,234.858292 606.639648,234.835526 609.049622,236.734818 
	C610.608948,237.963684 612.095398,238.610992 614.003906,238.606216 
	C622.335693,238.585327 630.671448,238.736618 638.997375,238.513214 
	C642.377075,238.422516 645.591553,238.070892 648.642334,235.450363 
	C653.057617,231.657776 656.972778,234.085312 657.391296,241.414490 
	C645.142822,240.347275 634.114075,245.173203 622.578491,248.259949 
	C625.660522,250.528625 628.939453,250.578033 632.197937,250.619766 
	C657.824951,250.947983 683.455627,251.108154 709.075867,251.714859 
	C713.243286,251.813553 718.636597,250.835663 720.764587,256.779846 
	C721.369507,258.469452 723.314148,258.629272 725.043701,258.811890 
	C733.649048,259.720428 742.289795,260.427399 750.833740,261.750366 
	C762.006104,263.480316 773.410522,262.670746 784.499390,265.260559 
	C793.387573,267.336426 802.367188,269.020569 811.303894,270.889313 
	C812.144653,271.065125 812.861755,271.460236 813.247375,272.424072 
	C812.148743,274.543365 810.354919,273.312561 808.931213,273.085602 
	C804.828186,272.431488 800.753113,271.594879 796.677368,270.778809 
	C793.688416,270.180328 790.782166,269.298279 789.218506,273.321320 
	C788.609741,274.887573 786.705505,274.906891 785.234497,274.361053 
	C783.402161,273.681091 781.709717,273.939362 779.673035,274.376953 
	C784.108459,276.891022 789.614746,276.022827 793.177673,279.983765 
	C787.621399,279.669922 782.214417,280.301758 776.915955,278.576019 
	C770.120361,276.362701 763.298401,277.109528 756.803223,279.942261 
	C755.422180,280.544556 753.920410,281.885162 752.712402,281.114868 
	C746.190430,276.956177 739.121582,280.350342 732.349365,279.510498 
	C725.861023,278.705841 720.515808,274.468445 713.826294,274.659119 
	C707.678162,274.834351 701.513062,274.358002 695.354065,274.240204 
	C693.220398,274.199371 691.130249,274.648041 691.203369,277.382446 
	C691.272644,279.970367 693.520691,279.662933 695.271667,280.048889 
	C716.942383,284.825836 739.142517,284.393646 761.080078,286.454559 
	C769.050720,287.203308 777.297607,284.515808 785.433411,286.776184 
	C790.588135,288.208313 795.914795,288.570801 801.620789,288.995605 
	C802.018616,288.999573 801.985901,288.975067 801.985901,288.975067 
M744.877319,298.566254 
	C747.336060,301.049622 746.137573,305.192413 749.335938,307.848969 
	C753.035645,305.910919 757.667603,308.239655 761.684937,306.191284 
	C761.545349,304.240540 760.274841,304.145966 759.193420,303.832153 
	C755.103943,302.645325 749.824158,304.144897 747.601807,298.631561 
	C747.461182,298.282623 746.057922,298.442596 744.877319,298.566254 
M703.242371,309.985168 
	C705.150208,309.322632 706.318909,308.150787 706.061768,305.721039 
	C701.031006,303.998505 696.107117,304.374237 689.821960,306.023956 
	C694.607971,308.741241 697.670593,312.086090 703.242371,309.985168 
M731.788757,298.115662 
	C727.769104,297.174500 724.625061,298.604187 722.043396,301.766968 
	C726.382324,302.814117 730.710388,303.004211 735.605774,302.500549 
	C734.414124,300.824829 734.184387,299.099640 731.788757,298.115662 
M686.232483,305.003906 
	C684.588989,303.947998 682.755920,304.278442 680.983582,304.355438 
	C679.692261,304.411560 678.108154,304.471100 677.800964,306.050110 
	C677.454834,307.829163 678.579468,309.192078 679.987122,310.119019 
	C681.377869,311.034698 682.875793,310.886108 683.931824,309.537689 
	C684.921814,308.273468 685.691284,306.836548 686.232483,305.003906 
M695.599609,300.449249 
	C696.720703,300.657043 697.841858,301.033173 698.962830,301.032318 
	C700.556458,301.031128 702.435181,301.459015 703.385681,299.585632 
	C703.780823,298.807007 703.544128,297.940308 702.718262,297.422821 
	C701.024109,296.361389 699.267090,296.384247 697.477844,297.178528 
	C696.300354,297.701233 695.840515,298.761414 695.599609,300.449249 
M774.355713,268.119568 
	C774.209778,268.194611 774.025146,268.237701 773.929016,268.353912 
	C773.838684,268.463104 773.776306,268.764832 773.812805,268.785492 
	C777.154480,270.677032 780.658264,270.849182 784.298279,269.729828 
	C781.302185,268.426392 778.177795,267.949768 774.355713,268.119568 
z"/>
<path fill="#F0A500" opacity="1.000000" stroke="none" 
	d="
M673.039673,235.271820 
	C673.671692,232.910309 675.448059,233.683929 676.777039,233.683975 
	C697.243042,233.684708 717.699097,233.777206 738.040039,236.631317 
	C745.433838,237.668793 752.915405,238.070908 760.347351,238.853928 
	C762.220947,239.051346 764.366272,238.836716 765.600769,240.834152 
	C765.391602,241.201385 765.201172,241.723206 765.088501,241.706909 
	C756.578613,240.476425 748.235107,243.131241 739.715881,242.655609 
	C727.998047,242.001373 716.309387,240.221313 704.526733,241.230789 
	C701.732178,241.470184 699.208923,241.254028 697.777222,238.465622 
	C691.447937,242.714493 685.727417,242.313263 682.450317,237.353226 
	C681.699097,238.995621 681.395325,240.958771 679.026733,240.896439 
	C676.664062,240.834259 677.265625,239.085266 676.879883,237.737488 
	C676.375793,235.976227 674.208252,236.676208 673.039673,235.271820 
z"/>
<path fill="#F0A500" opacity="1.000000" stroke="none" 
	d="
M802.037903,289.007141 
	C791.377991,285.792023 780.114624,285.690735 769.356445,282.892548 
	C768.101807,282.566223 766.859558,282.192474 765.639465,281.848541 
	C765.583435,279.271912 767.265686,279.335724 768.702820,279.578949 
	C780.944824,281.650970 793.177063,283.781616 805.400574,285.960083 
	C806.618469,286.177124 808.099182,286.393433 808.318848,288.415741 
	C806.685059,290.002228 804.662964,288.910828 802.404785,288.985840 
	C801.985901,288.975067 802.018616,288.999573 802.037903,289.007141 
z"/>
<path fill="#F0A500" opacity="1.000000" stroke="none" 
	d="
M197.600067,335.236023 
	C201.459564,334.063477 203.927307,335.321960 204.668304,338.819092 
	C205.254410,341.585144 203.115662,342.837189 200.833313,343.732788 
	C198.718994,344.562469 196.961777,344.282562 195.713760,342.267761 
	C194.005997,339.510712 194.820419,337.282684 197.600067,335.236023 
z"/>
<path fill="#F0A500" opacity="1.000000" stroke="none" 
	d="
M255.026123,330.230713 
	C254.199112,327.524841 254.830963,325.649658 257.097870,324.509674 
	C258.619110,323.744629 259.995728,324.137482 261.144501,325.327820 
	C262.580902,326.816223 262.617554,328.645203 262.026794,330.425537 
	C260.960083,333.640289 258.778564,333.652435 255.026123,330.230713 
z"/>
<path fill="#F0A500" opacity="1.000000" stroke="none" 
	d="
M732.304077,253.216064 
	C737.677490,254.188538 743.053101,253.389038 747.540222,256.738861 
	C741.383667,257.490204 735.299133,257.853485 729.514343,255.122101 
	C729.905701,253.257034 730.898438,253.197037 732.304077,253.216064 
z"/>
<path fill="#F0A500" opacity="1.000000" stroke="none" 
	d="
M290.850067,333.238953 
	C289.910065,330.414642 290.721008,328.649200 293.252289,327.960358 
	C294.687653,327.569733 296.311676,327.449036 297.092194,329.190582 
	C297.865265,330.915649 297.091400,332.458862 296.051117,333.772034 
	C294.356598,335.911102 292.647247,335.134613 290.850067,333.238953 
z"/>
<path fill="#F0A500" opacity="1.000000" stroke="none" 
	d="
M775.982910,252.987228 
	C773.942200,252.597702 771.893494,253.214523 770.741577,250.753860 
	C773.896912,248.799973 776.679260,249.730362 779.487061,251.248260 
	C779.094543,253.423233 777.598755,252.946457 775.982910,252.987228 
z"/>
<path fill="#F0A500" opacity="1.000000" stroke="none" 
	d="
M748.522217,246.749649 
	C750.831055,246.871292 752.867554,246.692719 754.506714,248.590027 
	C752.242126,251.105652 749.673218,250.175125 747.467041,249.047653 
	C745.860352,248.226593 746.750610,247.216309 748.522217,246.749649 
z"/>
<path fill="#F0A500" opacity="1.000000" stroke="none" 
	d="
M779.014893,244.233093 
	C776.690796,243.469177 774.337769,244.006836 772.428711,241.974304 
	C776.191772,239.216980 779.210693,242.380325 782.530640,242.063095 
	C782.191833,244.821396 780.575500,244.103897 779.014893,244.233093 
z"/>
<path fill="#F0A500" opacity="1.000000" stroke="none" 
	d="
M670.938232,240.215942 
	C667.840759,241.644516 664.964294,242.060623 661.270813,239.554565 
	C665.243469,238.409576 668.186096,237.352386 670.938232,240.215942 
z"/>
<path fill="#F0A500" opacity="1.000000" stroke="none" 
	d="
M825.127808,297.934875 
	C823.564819,296.347778 824.079163,295.228485 825.626709,294.863586 
	C827.984192,294.307678 829.497620,295.610413 830.623413,297.630524 
	C828.861511,299.299622 827.129822,298.303864 825.127808,297.934875 
z"/>
<path fill="#F0A500" opacity="1.000000" stroke="none" 
	d="
M362.571106,337.197388 
	C364.692108,335.300018 366.285126,335.878357 368.082916,338.205566 
	C365.768219,340.377716 363.978241,341.461914 362.571106,337.197388 
z"/>
</svg>